<?xml version="1.0" encoding="UTF-8"?>
<svg xmlns="http://www.w3.org/2000/svg" fill="none" viewBox="0 0 891 406" width="2400" height="1093.6026936027"><g clip-path="url(#a)"><path fill="#FF444F" d="m228.438 90.546-12.343 69.973h-42.846c-39.974 0-78.074 32.374-85.136 72.331l-2.99 17.008c-7.028 39.958 19.642 72.332 59.616 72.332h35.736c29.134 0 56.888-23.575 62.012-52.697L275.398 83zm-30.402 172.347c-1.576 8.996-9.679 16.319-18.678 16.319h-21.711c-17.967 0-29.988-14.579-26.835-32.572l1.872-10.605c3.186-17.96 20.332-32.57 38.298-32.57h37.537zm360.379 59.293 28.116-159.438h44.472l-28.115 159.438zm4.81-157.599c-2.229 12.646-4.468 25.292-6.697 37.939-21.069-6.545-42.807-4.461-49.485-3.13-7.212 40.94-14.435 81.89-21.657 122.83h-44.502c6.043-34.255 26.69-151.242 26.69-151.242 14.474-5.992 50.018-18.151 95.651-6.397m-180.316-4.095H348.29c-33.732 0-65.887 27.317-71.833 61.037l-6.995 39.629c-5.946 33.719 16.554 61.037 50.287 61.037h73.639l7.555-42.847h-69.207c-11.233 0-18.755-9.095-16.751-20.357l.23-1.346h111.577l6.371-36.116c5.945-33.72-16.554-61.037-50.287-61.037zm5.617 57.622-.263 2.298h-66.347l.362-2.035c2.002-11.229 12.251-21.112 23.515-21.112h25.916c11.135 0 18.657 9.719 16.817 20.849m371.495-55.366h44.504c-15.16 40.292-49.903 108.831-83.559 159.438h-44.505c-15.449-48.166-25.425-115.277-27.328-159.438h44.506c.804 14.405 7.255 67.836 14.617 105.164 20.193-36.314 42.455-83.959 51.731-105.164z"/></g><defs><clipPath id="a"><path fill="#fff" d="M0 0H721V239.226H0z" transform="translate(84 83)"/></clipPath></defs></svg>
